# xmcd CD database file
#
# Track frame offsets:
#	150
#	17211
#	33033
#	51233
#	69395
#	89901
#	105093
#	122937
#	141144
#	159451
#	176248
#	192136
#
# Disc length: 2766 seconds
#
# Revision: 0
# Processed by: cddbd v1.5.2PL0 Copyright (c) Steve Scherf et al.
# Submitted via: CDex 1.79
#
DISCID=a10acc0c
DTITLE=SalsAfrica - SalsAfrica
DYEAR=2008
DGENRE=Salsa
TTITLE0=Salsafrica "Omadjela Fargas"
TTITLE1=Chocolat
TTITLE2=Lina
TTITLE3=El Tumbao De La Vida
TTITLE4=Africa Oye
TTITLE5=Mi Habana
TTITLE6=Mi Ami Moleka
TTITLE7=18 de Septiembre
TTITLE8=Madalena
TTITLE9=Striptease
TTITLE10=Guajirarock
TTITLE11=Morir Cantando
EXTD=YEAR: 2008
EXTT0=
EXTT1=
EXTT2=
EXTT3=
EXTT4=
EXTT5=
EXTT6=
EXTT7=
EXTT8=
EXTT9=
EXTT10=
EXTT11=
PLAYORDER=
